<svg xmlns="http://www.w3.org/2000/svg" width="2640" height="962" viewBox="0 0 2640 962">
<rect width="100%" height="100%" fill="white"/>
<line x1="0" y1="0" x2="0" y2="962" stroke="#eee"/>
<g transform="translate(-76,796) scale(1,-1)"><path d="M139 709Q139 607 139.0 504.5Q139 402 139 300Q128.25 300 117.5 300.0Q106.75 300 96 300Q96 402 96.0 504.5Q96 607 96 709Q106.75 709 117.5 709.0Q128.25 709 139 709ZM295.5 27Q371 27 410.0 76.0Q449 125 449 209Q449 334 449.0 459.0Q449 584 449 709Q459.96938775510205 709 470.5 709.0Q481.03061224489795 709 492 709Q492 583.7525150905433 492.0 458.0Q492 332.2474849094567 492 207Q492 143 469.0 93.5Q446 44 402.0 16.0Q358 -12 295 -12Q233 -12 188.0 14.0Q143 40 119.5 89.0Q96 138 96 206Q96 208.12389380530973 96.0 211.06194690265488Q96 214 96 216Q106.75 218.10526315789474 117.5 220.0Q128.25 221.89473684210526 139 224Q139 220.92307692307693 139.0 217.46153846153845Q139 214 139 211Q139 124 179.5 75.5Q220 27 295.5 27Z" fill="black"/></g>
<line x1="220" y1="0" x2="220" y2="962" stroke="#eee"/>
<g transform="translate(146.000244140625,810.3350830078125) scale(1,-1)"><path d="M147.667724609375 706.999755859375Q147.667724609375 605.997432643452 147.667724609375 504.5Q147.667724609375 403.00256735654796 147.667724609375 302.000244140625Q134.50076293945312 302.000244140625 121.00042724609375 302.000244140625Q107.50009155273438 302.000244140625 93.999755859375 302.000244140625Q93.999755859375 403.00256735654796 93.999755859375 504.5Q93.999755859375 605.997432643452 93.999755859375 706.999755859375Q107.50009155273438 706.999755859375 121.00042724609375 706.999755859375Q134.50076293945312 706.999755859375 147.667724609375 706.999755859375ZM297.67842680832433 55.00341796875Q364.6658935546875 55.00341796875 400.3321533203125 97.36436474230862Q435.9984130859375 139.72531151586725 435.9984130859375 213.667236328125Q435.9984130859375 333.83331298828125 435.9984130859375 453.9993896484375Q435.9984130859375 574.1654663085938 435.9984130859375 694.33154296875Q451.04993174027425 694.33154296875 465.4993896484375 694.33154296875Q479.94884755660075 694.33154296875 495.0003662109375 694.33154296875Q495.0003662109375 574.6386858818006 495.0003662109375 454.4631963065974Q495.0003662109375 334.2877067313943 495.0003662109375 214.59484964444493Q495.0003662109375 153.83097207085203 471.6106472821303 105.7984624198787Q448.2209283533231 57.765952768905386 404.1692788567342 30.050517888358943Q360.11762936014526 2.3350830078125 297.6669921875 2.3350830078125Q245.668212890625 2.3350830078125 206.52287013556366 21.85333949497768Q167.37752738050236 41.37159598214286 143.95997471963204 77.97103480747768Q120.54242205876176 114.57047363281251 114.6510219779066 165.73032296316964Q105.96895870085686 175.89009013140998 101.31785337386593 189.9444347141425Q96.666748046875 203.998779296875 96.666748046875 220.24154334435096Q111.61170450846355 223.1066833248988 126.55666097005209 225.68530930739183Q141.50161743164062 228.26393528988487 156.33544921875 231.0008544921875Q156.33544921875 227.61620154747595 156.33544921875 224.1299347929902Q156.33544921875 220.64366803850447 156.33544921875 217.3341064453125Q156.33544921875 138.3350830078125 193.5132046403556 96.66925048828125Q230.69096006196122 55.00341796875 297.67842680832433 55.00341796875Z" fill="black"/></g>
<line x1="440" y1="0" x2="440" y2="962" stroke="#eee"/>
<g transform="translate(367.999755859375,824.6649169921875) scale(1,-1)"><path d="M156.332275390625 705.000244140625Q156.332275390625 604.9952323932228 156.332275390625 504.5Q156.332275390625 404.0047676067772 156.332275390625 303.999755859375Q140.74923706054688 303.999755859375 124.49957275390625 303.999755859375Q108.24990844726562 303.999755859375 92.000244140625 303.999755859375Q92.000244140625 404.0047676067772 92.000244140625 504.5Q92.000244140625 604.9952323932228 92.000244140625 705.000244140625Q108.24990844726562 705.000244140625 124.49957275390625 705.000244140625Q140.74923706054688 705.000244140625 156.332275390625 705.000244140625ZM299.8560559502963 82.99658203125Q358.3341064453125 82.99658203125 390.6678466796875 118.72090657552083Q423.0015869140625 154.44523111979166 423.0015869140625 218.332763671875Q423.0015869140625 333.66668701171875 423.0015869140625 449.0006103515625Q423.0015869140625 564.3345336914062 423.0015869140625 679.66845703125Q442.1337417291135 679.66845703125 460.5006103515625 679.66845703125Q478.8674789740115 679.66845703125 497.9996337890625 679.66845703125Q497.9996337890625 565.5281938496266 497.9996337890625 450.92768767130315Q497.9996337890625 336.3271814929796 497.9996337890625 222.18691831135618Q497.9996337890625 164.65797820539106 474.22033863336264 118.09242155802184Q450.44104347766284 71.52686491065262 406.33776339678695 44.09589095142006Q362.2344833159111 16.6649169921875 300.3330078125 16.6649169921875Q258.331787109375 16.6649169921875 225.03895782142558 29.70380336216518Q191.74612853347614 42.74268973214286 168.41099302230344 66.94610804966518Q145.07585751113072 91.1495263671875 133.2952145812332 125.47539132254465Q115.93426710559476 143.66808938818545 106.63375952935988 168.8346550456552Q97.333251953125 194.001220703125 97.333251953125 224.48153357872596Q116.4716288248698 228.10627214068825 135.6100056966146 231.36853684645433Q154.74838256835938 234.6308015522204 173.66455078125 237.9991455078125Q173.66455078125 234.30687537560095 173.66455078125 230.79588938283396Q173.66455078125 227.28490339006697 173.66455078125 223.6658935546875Q173.66455078125 152.6649169921875 207.5212781182651 117.83074951171875Q241.37800545528017 82.99658203125 299.8560559502963 82.99658203125Z" fill="black"/></g>
<line x1="660" y1="0" x2="660" y2="962" stroke="#eee"/>
<g transform="translate(590,839) scale(1,-1)"><path d="M165 703Q165 603.9926650366748 165.0 504.5Q165 405.0073349633252 165 306Q147 306 128.0 306.0Q109 306 90 306Q90 405.0073349633252 90.0 504.5Q90 603.9926650366748 90 703Q109 703 128.0 703.0Q147 703 165 703ZM302.0344827586207 111Q352 111 381.0 140.08527131782944Q410 169.1705426356589 410 223Q410 333.5 410.0 444.0Q410 554.5 410 665Q433.2142857142857 665 455.5 665.0Q477.7857142857143 665 501 665Q501 556.414364640884 501.0 447.39088397790056Q501 338.3674033149171 501 229.78176795580112Q501 175.4889502762431 476.830985915493 130.39088397790056Q452.6619718309859 85.29281767955801 408.50704225352115 58.146408839779006Q364.3521126760563 31 303 31Q271 31 243.56182795698925 37.55714285714286Q216.1236559139785 44.114285714285714 192.8709677419355 55.917142857142856Q169.61827956989248 67.72 151.94623655913978 85.2057142857143Q125.90322580645162 111.43428571428572 111.95161290322581 147.71714285714285Q98 184 98 228.72307692307692Q121.33333333333333 233.1076923076923 144.66666666666666 237.05384615384617Q168 241 191 245Q191 241 191.0 237.46428571428572Q191 233.92857142857142 191 230Q191 167 221.5344827586207 139.0Q252.06896551724137 111 302.0344827586207 111Z" fill="black"/></g>
<line x1="880" y1="0" x2="880" y2="962" stroke="#eee"/>
<g transform="translate(810.666748046875,823.664794921875) scale(1,-1)"><path d="M172.6676025390625 705.000244140625Q172.6676025390625 604.9952323932228 172.6676025390625 504.5Q172.6676025390625 404.0047676067772 172.6676025390625 303.999755859375Q152.333984375 303.999755859375 131.333740234375 303.999755859375Q110.33349609375 303.999755859375 89.333251953125 303.999755859375Q89.333251953125 404.0047676067772 89.333251953125 504.5Q89.333251953125 604.9952323932228 89.333251953125 705.000244140625Q110.33349609375 705.000244140625 131.333740234375 705.000244140625Q152.333984375 705.000244140625 172.6676025390625 705.000244140625ZM304.02323124326506 99.3319091796875Q355.333740234375 99.3319091796875 385.00048828125 129.88893636067706Q414.667236328125 160.44596354166666 414.667236328125 216.999267578125Q414.667236328125 332.66656494140625 414.667236328125 448.3338623046875Q414.667236328125 564.0011596679688 414.667236328125 679.66845703125Q438.4768327985491 679.66845703125 461.33404541015625 679.66845703125Q484.1912580217634 679.66845703125 508.0008544921875 679.66845703125Q508.0008544921875 565.9440729130697 508.0008544921875 451.7611227298968Q508.0008544921875 337.5781725467239 508.0008544921875 223.85378842854368Q508.0008544921875 166.99159636945356 483.22143726617514 119.75929167520934Q458.44202004016284 72.52698698096512 413.1719308772557 44.09589095142006Q367.9018417143486 15.664794921875 305.000244140625 15.664794921875Q272.0001220703125 15.664794921875 243.87459014564433 22.53626185825893Q215.74905822097614 29.407728794642857 191.9138616746472 41.776369280133935Q168.07866512831822 54.145009765625005 149.9639157531082 72.46892159598215Q123.26849562121976 99.95478934151785 108.96737769342238 137.97690638950894Q94.666259765625 175.9990234375 94.666259765625 222.81466346153846Q118.55521647135417 227.40443209134617 142.44417317708334 231.53522385817308Q166.3331298828125 235.666015625 189.9998779296875 239.9993896484375Q189.9998779296875 235.9993896484375 189.9998779296875 232.1422075544085Q189.9998779296875 228.28502546037947 189.9998779296875 223.999267578125Q189.9998779296875 158.332275390625 221.35630009092134 128.83209228515625Q252.71272225215517 99.3319091796875 304.02323124326506 99.3319091796875Z" fill="black"/></g>
<line x1="1100" y1="0" x2="1100" y2="962" stroke="#eee"/>
<g transform="translate(1032,793) scale(1,-1)"><path d="M188 709Q188 607 188.0 504.5Q188 402 188 300Q163 300 138.0 300.0Q113 300 88 300Q88 402 88.0 504.5Q88 607 88 709Q113 709 138.0 709.0Q163 709 188 709ZM308 76Q362 76 393.0 109.5Q424 143 424 205Q424 331 424.0 457.0Q424 583 424 709Q449 709 473.0 709.0Q497 709 522 709Q522 585 522.0 460.5Q522 336 522 212Q522 150 496.0 98.5Q470 47 422.5 16.0Q375 -15 309 -15Q274 -15 244.5 -7.5Q215 0 190.0 13.5Q165 27 146 47Q118 77 103.0 118.5Q88 160 88 211Q113 216 138.0 220.5Q163 225 188 230Q188 226 188.0 221.5Q188 217 188 212Q188 141 221.0 108.5Q254 76 308 76Z" fill="black"/></g>
<line x1="1320" y1="0" x2="1320" y2="962" stroke="#eee"/>
<g transform="translate(1258.3572998046875,773.2589111328125) scale(1,-1)"><path d="M196.0302734375 710.33837890625Q196.0302734375 609.6767578125 196.0302734375 508.96416938110747Q196.0302734375 408.251580949715 196.0302734375 308.0302734375Q168.6881103515625 308.0302734375 141.345947265625 308.0302734375Q114.0037841796875 308.0302734375 86.3270263671875 308.0302734375Q86.3270263671875 408.251580949715 86.3270263671875 508.96416938110747Q86.3270263671875 609.6767578125 86.3270263671875 710.33837890625Q114.0037841796875 710.33837890625 141.345947265625 710.33837890625Q168.6881103515625 710.33837890625 196.0302734375 710.33837890625ZM309.14223716998924 60.9432373046875Q365.0113525390625 60.9432373046875 397.01513671875 96.35483663396317Q429.0189208984375 131.76643596323885 429.0189208984375 197.3043212890625Q429.0189208984375 330.16351318359375 429.0189208984375 463.022705078125Q429.0189208984375 595.8818969726562 429.0189208984375 728.7410888671875Q454.6881103515625 728.7410888671875 479.69189453125 728.7410888671875Q504.6956787109375 728.7410888671875 530.3648681640625 728.7410888671875Q530.3648681640625 597.9869441542514 530.3648681640625 466.70556498682777Q530.3648681640625 335.42418581940404 530.3648681640625 204.67004110646803Q530.3648681640625 139.29296875 503.6956787109375 84.94891357421875Q477.0264892578125 30.6048583984375 427.74960421923527 -2.068115234375Q378.472719180658 -34.7410888671875 310.0037841796875 -34.7410888671875Q274 -34.7410888671875 243.32891845703125 -27.07379150390625Q212.6578369140625 -19.406494140625 186.9886474609375 -4.9027099609375Q161.3194580078125 9.60107421875 141.64314951795214 30.537939453125Q112.646484375 61.9432373046875 97.14459228515625 105.82660048755247Q81.6427001953125 149.70996367041744 81.6427001953125 203.638916015625Q107.3118896484375 208.638916015625 133.20414225260419 213.46156093052457Q159.09639485677084 218.2842058454241 184.9886474609375 223.6427001953125Q184.9886474609375 219.30810546875 184.9886474609375 214.55715942382812Q184.9886474609375 209.80621337890625 184.9886474609375 204.52738444010416Q184.9886474609375 129.5680135091146 219.13088463092674 95.25562540690105Q253.27312180091596 60.9432373046875 309.14223716998924 60.9432373046875Z" fill="black"/></g>
<line x1="1540" y1="0" x2="1540" y2="962" stroke="#eee"/>
<g transform="translate(1484.6427001953125,753.7410888671875) scale(1,-1)"><path d="M203.9697265625 711.66162109375Q203.9697265625 612.3232421875 203.9697265625 513.3778501628665Q203.9697265625 414.4324581382329 203.9697265625 315.9697265625Q174.3118896484375 315.9697265625 144.654052734375 315.9697265625Q114.9962158203125 315.9697265625 84.6729736328125 315.9697265625Q84.6729736328125 414.4324581382329 84.6729736328125 513.3778501628665Q84.6729736328125 612.3232421875 84.6729736328125 711.66162109375Q114.9962158203125 711.66162109375 144.654052734375 711.66162109375Q174.3118896484375 711.66162109375 203.9697265625 711.66162109375ZM310.27155593345907 46.0567626953125Q367.9886474609375 46.0567626953125 400.98486328125 83.35834166061046Q433.9810791015625 120.65992062590843 433.9810791015625 189.6956787109375Q433.9810791015625 329.33648681640625 433.9810791015625 468.977294921875Q433.9810791015625 608.6181030273438 433.9810791015625 748.2589111328125Q460.3118896484375 748.2589111328125 486.30810546875 748.2589111328125Q512.3043212890625 748.2589111328125 538.6351318359375 748.2589111328125Q538.6351318359375 610.8270093341206 538.6351318359375 472.8409466410792Q538.6351318359375 334.8548839480378 538.6351318359375 197.42298214934593Q538.6351318359375 128.70703125 511.3043212890625 71.55108642578125Q483.9735107421875 14.3951416015625 432.93983677455356 -19.931884765625Q381.90616280691967 -54.2589111328125 310.9962158203125 -54.2589111328125Q274 -54.2589111328125 242.17108154296875 -46.42620849609375Q210.3421630859375 -38.593505859375 184.0113525390625 -23.0972900390625Q157.6805419921875 -7.60107421875 137.3355738863032 14.262060546874999Q107.353515625 47.0567626953125 91.35540771484375 93.29653384080574Q75.3572998046875 139.53630498629897 75.3572998046875 196.361083984375Q101.6881103515625 201.361083984375 128.4625244140625 206.50272478376115Q155.2369384765625 211.64436558314733 182.0113525390625 217.3572998046875Q182.0113525390625 212.69189453125 182.0113525390625 207.69284057617188Q182.0113525390625 202.69378662109375 182.0113525390625 197.1392822265625Q182.0113525390625 118.26531982421875 217.28290847252157 82.16104125976562Q252.5544644059806 46.0567626953125 310.27155593345907 46.0567626953125Z" fill="black"/></g>
<line x1="1760" y1="0" x2="1760" y2="962" stroke="#eee"/>
<g transform="translate(1711,734) scale(1,-1)"><path d="M212 713Q212 615 212.0 517.842019543974Q212 420.6840390879479 212 324Q180 324 148.0 324.0Q116 324 83 324Q83 420.6840390879479 83.0 517.842019543974Q83 615 83 713Q116 713 148.0 713.0Q180 713 212 713ZM311.41379310344826 31Q371 31 405.0 70.21317829457365Q439 109.42635658914729 439 182Q439 328.5 439.0 475.0Q439 621.5 439 768Q466 768 493.0 768.0Q520 768 547 768Q547 623.8139534883721 547.0 479.04651162790697Q547 334.27906976744185 547 190.09302325581396Q547 118 519.0 58.0Q491 -2 438.1894409937888 -38.0Q385.37888198757764 -74 312 -74Q274 -74 241.0 -66.0Q208 -58 181.0 -41.5Q154 -25 132.97872340425533 -2.200000000000003Q102 32 85.5 80.6231343283582Q69 129.2462686567164 69 189Q96 194 123.66666666666667 199.46428571428572Q151.33333333333334 204.92857142857142 179 211Q179 206 179.0 200.75Q179 195.5 179 189.66666666666666Q179 106.83333333333333 215.41379310344826 68.91666666666666Q251.82758620689654 31 311.41379310344826 31Z" fill="black"/></g>
<line x1="1980" y1="0" x2="1980" y2="962" stroke="#eee"/>
<g transform="translate(1932.6729736328125,753.7410888671875) scale(1,-1)"><path d="M222.3724365234375 711.66162109375Q222.3724365234375 616.9923099679356 222.3724365234375 522.7388733108968Q222.3724365234375 428.4854366538579 222.3724365234375 334.3724365234375Q186.77554321289062 334.3724365234375 151.17864990234375 334.3724365234375Q115.58175659179688 334.3724365234375 79.3194580078125 334.3724365234375Q79.3194580078125 428.4854366538579 79.3194580078125 522.7388733108968Q79.3194580078125 616.9923099679356 79.3194580078125 711.66162109375Q115.58175659179688 711.66162109375 151.17864990234375 711.66162109375Q186.77554321289062 711.66162109375 222.3724365234375 711.66162109375ZM309.26777175377157 72.48974609375Q360.6275634765625 72.48974609375 388.6048583984375 105.77618834029796Q416.5821533203125 139.06263058684593 416.5821533203125 198.3951416015625Q416.5821533203125 335.861083984375 416.5821533203125 473.3270263671875Q416.5821533203125 610.79296875 416.5821533203125 748.2589111328125Q450.2740478515625 748.2589111328125 483.79864501953125 748.2589111328125Q517.3232421875 748.2589111328125 550.6805419921875 748.2589111328125Q550.6805419921875 612.8305383205392 550.6805419921875 476.8560833598292Q550.6805419921875 340.8816283991193 550.6805419921875 205.45325558684593Q550.6805419921875 132.72216796875 521.007568359375 73.89324951171875Q491.3345947265625 15.0643310546875 437.28956821986606 -19.5972900390625Q383.24454171316967 -54.2589111328125 310.3270263671875 -54.2589111328125Q260.9508056640625 -54.2589111328125 220.75701904296875 -38.8978271484375Q180.563232421875 -23.5367431640625 152.224853515625 5.6778564453125Q123.886474609375 34.8924560546875 109.8988063081782 75.15830078125Q89.285400390625 101.9302978515625 78.30621337890625 138.299524563462Q67.3270263671875 174.66875127536147 67.3270263671875 218.4443359375Q99.59689331054688 224.1487458881579 132.31036376953125 229.92435564313615Q165.02383422851562 235.69996539811441 197.7373046875 242.1173095703125Q197.7373046875 232.767578125 197.7373046875 223.25149536132812Q197.7373046875 213.73541259765625 197.7373046875 203.8311767578125Q197.7373046875 135.66424560546875 228.40818313072467 104.07699584960938Q259.07906157394933 72.48974609375 309.26777175377157 72.48974609375Z" fill="black"/></g>
<line x1="2200" y1="0" x2="2200" y2="962" stroke="#eee"/>
<g transform="translate(2154.3270263671875,773.2589111328125) scale(1,-1)"><path d="M232.6275634765625 710.33837890625Q232.6275634765625 618.9620874262012 232.6275634765625 527.5803449301455Q232.6275634765625 436.19860243409 232.6275634765625 344.6275634765625Q193.47445678710938 344.6275634765625 154.32135009765625 344.6275634765625Q115.16824340820312 344.6275634765625 75.6805419921875 344.6275634765625Q75.6805419921875 436.19860243409 75.6805419921875 527.5803449301455Q75.6805419921875 618.9620874262012 75.6805419921875 710.33837890625Q115.16824340820312 710.33837890625 154.32135009765625 710.33837890625Q193.47445678710938 710.33837890625 232.6275634765625 710.33837890625ZM307.14602134967674 113.51025390625Q350.3724365234375 113.51025390625 372.3951416015625 140.93698995427567Q394.4178466796875 168.36372600230135 394.4178466796875 214.6048583984375Q394.4178466796875 343.138916015625 394.4178466796875 471.6729736328125Q394.4178466796875 600.20703125 394.4178466796875 728.7410888671875Q434.7259521484375 728.7410888671875 474.70135498046875 728.7410888671875Q514.6767578125 728.7410888671875 554.3194580078125 728.7410888671875Q554.3194580078125 601.9713427332252 554.3194580078125 474.69042826807777Q554.3194580078125 347.40951380293023 554.3194580078125 220.63976766896803Q554.3194580078125 147.27783203125 522.992431640625 89.60675048828125Q491.6654052734375 31.9356689453125 436.39987277392277 -1.4027099609375Q381.134340274408 -34.7410888671875 308.6729736328125 -34.7410888671875Q248.0491943359375 -34.7410888671875 200.74298095703125 -12.1021728515625Q153.436767578125 10.5367431640625 123.775146484375 52.3221435546875Q94.113525390625 94.1075439453125 87.07991709607712 151.64169921875Q76.714599609375 171.0697021484375 71.19378662109375 195.32360976489622Q65.6729736328125 219.57751738135494 65.6729736328125 247.5556640625Q103.15310668945312 253.95651726973685 140.85630289713544 260.03993007114957Q178.55949910481772 266.12334287256226 216.2626953125 272.8826904296875Q216.2626953125 259.232421875 216.2626953125 245.49850463867188Q216.2626953125 231.76458740234375 216.2626953125 217.83548990885416Q216.2626953125 164.1690877278646 241.2556099727236 138.8396708170573Q266.2485246329472 113.51025390625 307.14602134967674 113.51025390625Z" fill="black"/></g>
<line x1="2420" y1="0" x2="2420" y2="962" stroke="#eee"/>
<g transform="translate(2376,793) scale(1,-1)"><path d="M243 709Q243 620.9543973941368 243.0 532.4771986970684Q243 444 243 355Q200.25 355 157.5 355.0Q114.75 355 72 355Q72 444 72.0 532.4771986970684Q72 620.9543973941368 72 709Q114.75 709 157.5 709.0Q200.25 709 243 709ZM305 155Q340 155 356.0 176.5Q372 198 372 231Q372 350.5 372.0 470.0Q372 589.5 372 709Q419 709 465.5 709.0Q512 709 558 709Q558 590.9879275653924 558.0 472.5Q558 354.01207243460766 558 236Q558 162 525.0 105.5Q492 49 435.5 17.0Q379 -15 307 -15Q235 -15 180.5 15.0Q126 45 95.0 99.5Q64 154 64 229Q64 241 64.0 253.0Q64 265 64 277Q106.75 284.10526315789474 149.5 290.5Q192.25 296.89473684210526 235 304Q235 286 235.0 268.0Q235 250 235 232Q235 193 254.25 174.0Q273.5 155 305 155Z" fill="black"/></g>
</svg>